<?xml version="1.0" standalone="no"?>
<!DOCTYPE svg PUBLIC "-//W3C//DTD SVG 20010904//EN"
 "http://www.w3.org/TR/2001/REC-SVG-20010904/DTD/svg10.dtd">
<svg version="1.0" xmlns="http://www.w3.org/2000/svg"
 width="2000.000000pt" height="2000.000000pt" viewBox="0 0 2000.000000 2000.000000"
 preserveAspectRatio="xMidYMid meet">

<g transform="translate(0.000000,2000.000000) scale(0.100000,-0.100000)"
fill="#000000" stroke="none">
<path d="M9905 19857 c-74 -29 -108 -61 -169 -156 -34 -53 -158 -252 -276
-442 l-214 -347 -45 -6 c-25 -3 -80 -8 -122 -12 l-76 -6 -341 364 c-351 376
-428 447 -520 474 -134 41 -282 -26 -340 -152 -12 -27 -96 -247 -186 -489
l-164 -440 -104 -32 c-56 -17 -111 -32 -120 -32 -10 -1 -171 109 -358 244
-516 371 -506 365 -610 365 -124 0 -229 -73 -268 -187 -6 -18 -45 -243 -87
-500 -41 -257 -77 -477 -80 -489 -3 -14 -38 -39 -111 -78 l-107 -58 -466 213
c-466 213 -466 213 -537 213 -94 1 -171 -37 -225 -108 -65 -86 -65 -81 -45
-649 9 -280 16 -510 14 -512 -69 -61 -182 -145 -195 -145 -10 0 -74 14 -143
30 -69 17 -163 39 -210 50 -47 11 -200 47 -340 80 -295 70 -351 74 -435 35
-98 -47 -158 -141 -157 -249 0 -42 36 -210 111 -529 61 -257 111 -475 111
-483 0 -13 -51 -80 -141 -187 -3 -5 -241 -1 -527 9 l-521 18 -68 -35 c-149
-76 -198 -226 -128 -386 14 -30 25 -65 25 -76 0 -11 6 -25 14 -31 8 -6 92
-180 186 -387 l172 -376 -58 -107 c-39 -72 -64 -108 -78 -111 -12 -3 -106 -19
-211 -35 -718 -115 -748 -120 -811 -151 -66 -31 -102 -70 -136 -145 -26 -60
-23 -170 7 -227 11 -21 117 -172 235 -337 148 -206 220 -298 230 -295 10 3 45
-38 107 -124 l91 -129 -36 -117 -37 -117 -460 -172 c-253 -95 -474 -180 -491
-189 -88 -46 -152 -169 -141 -272 11 -104 34 -133 339 -417 155 -144 322 -299
370 -343 l88 -80 -5 -80 c-3 -44 -8 -100 -11 -125 l-6 -45 -181 -113 c-499
-308 -630 -390 -670 -418 -65 -46 -107 -135 -107 -224 0 -55 6 -78 31 -128 17
-35 46 -73 67 -90 20 -15 222 -143 449 -283 l412 -254 7 -65 c4 -36 8 -92 8
-125 l1 -60 -368 -344 c-396 -370 -413 -390 -424 -496 -11 -103 53 -226 141
-272 17 -9 238 -94 491 -189 l460 -172 37 -117 37 -118 -282 -391 c-155 -215
-294 -415 -310 -445 -52 -103 -30 -237 54 -320 50 -51 119 -77 264 -100 423
-68 813 -132 832 -136 15 -3 38 -36 78 -112 l56 -107 -34 -75 c-19 -42 -115
-251 -213 -466 -176 -386 -178 -391 -178 -460 -1 -124 56 -209 174 -263 l55
-26 519 18 c285 10 522 14 525 9 91 -107 141 -174 141 -187 0 -9 -50 -227
-111 -484 -124 -524 -128 -558 -84 -647 47 -97 139 -156 244 -156 39 -1 206
34 529 110 260 61 479 111 488 111 13 0 79 -50 187 -141 5 -3 1 -241 -9 -527
l-18 -520 33 -66 c55 -112 169 -177 285 -161 35 4 191 70 512 216 l461 210
106 -56 c58 -31 108 -64 111 -73 3 -9 39 -231 81 -492 82 -508 91 -545 156
-609 80 -81 213 -105 314 -57 28 13 152 97 277 187 443 320 556 399 570 399 7
0 61 -14 120 -32 l108 -32 28 -76 c16 -41 96 -255 178 -474 142 -381 151 -402
197 -452 81 -89 196 -116 310 -74 62 23 84 45 501 492 147 159 272 288 279
288 6 0 61 -5 121 -11 l111 -12 260 -420 c143 -232 273 -436 288 -454 74 -85
223 -112 329 -60 30 15 65 38 79 52 13 14 143 218 289 453 l265 427 119 14
119 13 34 -34 c19 -19 177 -187 351 -374 364 -388 365 -389 497 -389 97 1 141
20 206 93 41 45 58 84 222 523 l178 475 107 32 c59 18 113 32 120 32 13 0 219
-144 612 -429 102 -73 208 -144 235 -157 101 -48 234 -24 314 57 65 64 74 101
155 604 42 259 78 480 81 492 4 15 36 38 112 78 l107 56 461 -210 c501 -228
522 -235 618 -207 82 24 136 69 176 149 l35 68 -12 382 c-7 210 -15 445 -18
522 l-6 140 91 72 c49 40 97 73 106 73 8 0 227 -50 487 -111 323 -76 490 -111
529 -110 105 0 197 59 244 156 44 90 40 123 -84 649 -61 257 -111 475 -111
483 0 12 52 81 141 186 3 5 241 1 527 -9 l521 -18 68 35 c80 40 125 94 149
176 28 96 21 117 -207 618 l-210 461 56 107 c41 77 63 108 78 112 19 4 407 68
832 136 145 23 214 49 264 100 84 83 106 217 54 320 -16 30 -155 230 -310 445
l-282 391 37 118 37 117 460 172 c253 95 474 180 491 189 88 45 152 169 141
272 -11 106 -28 126 -424 496 l-368 344 1 60 c0 33 4 89 8 125 l7 65 412 254
c227 140 429 268 449 283 21 17 50 55 67 90 44 88 44 172 -1 259 -39 75 -45
79 -348 266 -461 285 -575 356 -577 357 -1 1 -8 56 -14 123 l-12 120 69 65
c38 35 205 192 372 347 326 305 348 332 359 436 11 103 -53 226 -141 272 -17
9 -238 94 -491 189 l-460 172 -37 117 -36 117 289 402 c159 220 296 417 306
436 27 55 29 167 5 224 -34 75 -70 114 -136 145 -63 31 -93 36 -811 151 -104
16 -199 32 -211 35 -14 3 -39 39 -78 111 l-57 106 210 462 c228 502 235 522
207 619 -24 82 -69 136 -149 176 l-68 35 -521 -18 c-286 -10 -524 -14 -527 -9
-90 107 -141 174 -141 187 0 8 50 226 111 483 75 319 111 487 111 529 1 108
-59 202 -157 249 -84 39 -140 35 -435 -35 -140 -33 -293 -69 -340 -80 -47 -11
-141 -33 -210 -50 -69 -16 -133 -30 -143 -30 -13 0 -126 84 -195 145 -2 2 5
232 14 512 20 568 20 563 -45 649 -54 71 -131 109 -225 108 -71 0 -71 0 -537
-213 l-466 -213 -107 58 c-73 39 -108 64 -111 78 -3 12 -39 232 -80 489 -42
257 -81 482 -87 500 -39 113 -144 187 -266 187 -106 0 -71 21 -713 -441 l-247
-177 -78 25 c-44 13 -96 30 -118 37 l-38 12 -164 439 c-90 242 -174 462 -186
489 -49 106 -170 175 -285 163 -106 -11 -119 -22 -491 -421 l-347 -371 -65 2
c-36 1 -92 4 -125 8 l-60 6 -260 422 c-143 232 -276 437 -295 457 -53 54 -103
74 -190 77 -42 1 -88 -3 -105 -10z m237 -1757 c149 -46 282 -160 356 -306 49
-97 69 -277 42 -389 -39 -158 -164 -315 -310 -388 -185 -93 -406 -80 -576 32
-176 116 -268 285 -268 491 1 291 201 528 489 580 70 12 192 3 267 -20z
m-1009 -1435 c257 -269 489 -505 515 -523 27 -18 78 -45 113 -60 58 -24 76
-27 189 -27 141 1 195 16 295 83 29 20 286 259 569 530 l516 493 108 -21
c1142 -227 2245 -756 3169 -1518 78 -64 143 -120 143 -124 0 -5 -18 -8 -40 -8
l-40 0 0 -175 c0 -202 -18 -177 140 -195 132 -15 381 -60 406 -74 62 -34 437
-477 617 -729 l56 -78 -5 -67 c-31 -389 -128 -798 -326 -1367 -301 -867 -2164
-6165 -2168 -6165 -3 0 -537 1441 -1187 3203 -650 1761 -1238 3351 -1308 3532
-209 542 -275 745 -310 949 -58 342 51 544 365 673 182 75 422 113 873 139
l107 6 0 174 0 174 -2365 0 -2365 0 0 -175 c0 -133 3 -175 13 -175 6 0 93 -5
192 -10 458 -26 672 -104 882 -323 182 -191 343 -484 595 -1087 101 -241 688
-1764 688 -1785 0 -12 -1847 -5128 -1883 -5216 l-13 -34 -16 45 c-9 25 -594
1631 -1301 3570 -706 1939 -1296 3563 -1310 3610 -133 439 -152 733 -60 903
80 147 299 239 674 286 90 11 202 23 249 26 47 3 104 8 128 11 l42 5 0 175 0
174 -417 0 -416 0 18 20 c32 35 263 222 420 340 830 621 1790 1058 2803 1275
86 18 162 33 167 32 6 -1 221 -222 478 -492z m-6040 -3860 c217 -46 389 -211
443 -425 21 -83 14 -219 -15 -312 -12 -37 -42 -97 -66 -134 -25 -36 -42 -71
-39 -76 9 -15 -83 -95 -155 -136 -91 -51 -178 -73 -288 -73 -106 -1 -177 17
-274 67 -64 34 -181 128 -176 142 1 4 -10 23 -25 42 -126 165 -143 397 -45
600 42 87 159 206 246 249 129 66 261 84 394 56z m14059 -48 c182 -66 308
-194 370 -376 33 -96 33 -257 -1 -359 -79 -240 -301 -402 -553 -402 -109 0
-192 20 -278 67 -94 51 -153 104 -210 189 -117 176 -132 401 -37 593 49 102
161 210 268 260 106 50 160 61 279 56 69 -2 113 -10 162 -28z m-12015 -4399
l1041 -3043 -71 -7 c-40 -4 -178 -30 -307 -58 -129 -28 -255 -55 -280 -60 -25
-5 -159 -34 -299 -64 -252 -54 -255 -54 -280 -36 -54 39 -355 355 -491 515
-162 189 -187 220 -277 340 -142 190 -164 221 -270 380 -302 454 -560 957
-753 1470 -74 196 -130 368 -130 395 0 10 -18 91 -40 181 -142 590 -211 1224
-197 1829 6 249 20 483 35 593 l7 48 625 279 c344 153 630 278 635 279 6 1
479 -1368 1052 -3041z m11385 2718 l663 -295 12 -143 c12 -137 18 -717 9 -802
-3 -23 -8 -95 -11 -161 -25 -487 -139 -1106 -304 -1645 -279 -914 -742 -1770
-1351 -2500 -118 -142 -335 -382 -417 -462 l-49 -48 -606 130 c-334 72 -619
130 -634 130 -20 0 -25 4 -20 16 4 9 52 161 107 338 420 1337 934 2892 1412
4271 415 1196 510 1465 519 1465 3 0 305 -132 670 -294z m-5182 -4011 c728
-2018 1325 -3679 1327 -3690 4 -17 -11 -26 -114 -64 -552 -206 -1110 -343
-1678 -411 -370 -45 -958 -63 -1302 -41 -674 44 -1286 164 -1893 370 -220 74
-290 102 -290 115 0 11 2554 7391 2582 7460 l12 29 17 -49 c9 -27 612 -1700
1339 -3719z m-5567 -2531 c137 -35 256 -120 336 -239 157 -235 127 -543 -73
-740 -82 -81 -163 -127 -272 -155 -98 -25 -180 -25 -278 0 -110 28 -190 73
-272 155 -81 80 -144 196 -165 303 -15 81 -7 208 20 294 26 82 106 203 169
258 58 50 162 105 233 124 73 20 226 20 302 0z m8697 -30 c139 -39 268 -138
342 -260 215 -355 6 -811 -404 -883 -85 -15 -128 -14 -213 4 -216 45 -400 224
-450 436 -102 435 298 823 725 703z"/>
</g>
</svg>
